<svg xmlns="http://www.w3.org/2000/svg" xmlns:xlink="http://www.w3.org/1999/xlink" width="200" zoomAndPan="magnify" viewBox="0 0 150 157.92" height="200" preserveAspectRatio="xMidYMid meet" version="1.0"><defs><clipPath id="539e557165"><path d="M 1.703125 3.695312 L 148.628906 3.695312 L 148.628906 149.871094 L 1.703125 149.871094 Z M 1.703125 3.695312 " clip-rule="nonzero"/></clipPath></defs><g clip-path="url(#539e557165)"><path fill="#e26b38" d="M 85.214844 114.585938 C 85.84375 116.003906 85.59375 117.601562 84.554688 118.753906 L 67.949219 137.210938 C 67.203125 138.039062 66.179688 138.496094 65.066406 138.496094 C 63.953125 138.496094 62.933594 138.039062 62.1875 137.210938 L 45.578125 118.753906 C 44.542969 117.601562 44.289062 116.003906 44.921875 114.585938 C 45.550781 113.167969 46.910156 112.289062 48.460938 112.289062 L 53.769531 112.289062 L 53.769531 50.5625 C 53.769531 49.597656 54.550781 48.816406 55.515625 48.816406 C 56.480469 48.816406 57.265625 49.597656 57.265625 50.5625 L 57.265625 114.035156 C 57.265625 115 56.480469 115.78125 55.515625 115.78125 L 48.460938 115.78125 C 48.292969 115.78125 48.183594 115.855469 48.113281 116.007812 C 48.046875 116.160156 48.066406 116.292969 48.179688 116.414062 L 64.785156 134.875 C 64.871094 134.96875 64.9375 135 65.066406 135 C 65.195312 135 65.261719 134.96875 65.347656 134.875 L 81.957031 116.417969 C 82.070312 116.292969 82.089844 116.160156 82.019531 116.007812 C 81.953125 115.855469 81.84375 115.785156 81.675781 115.785156 L 74.617188 115.785156 C 73.652344 115.785156 72.871094 115 72.871094 114.035156 L 72.871094 80.875 C 72.871094 79.910156 73.652344 79.128906 74.617188 79.128906 C 75.582031 79.128906 76.363281 79.910156 76.363281 80.875 L 76.363281 112.289062 L 81.675781 112.289062 C 83.226562 112.289062 84.582031 113.167969 85.214844 114.585938 Z M 39.078125 99.601562 L 33.769531 99.601562 L 33.769531 24.691406 C 33.769531 23.726562 32.988281 22.945312 32.023438 22.945312 C 31.058594 22.945312 30.273438 23.726562 30.273438 24.691406 L 30.273438 101.351562 C 30.273438 102.316406 31.058594 103.097656 32.023438 103.097656 L 39.078125 103.097656 C 39.246094 103.097656 39.355469 103.167969 39.425781 103.324219 C 39.492188 103.476562 39.472656 103.605469 39.359375 103.730469 L 22.753906 122.1875 C 22.667969 122.285156 22.601562 122.3125 22.472656 122.3125 C 22.339844 122.3125 22.277344 122.285156 22.1875 122.1875 L 5.582031 103.730469 C 5.46875 103.605469 5.449219 103.476562 5.515625 103.324219 C 5.585938 103.167969 5.695312 103.097656 5.863281 103.097656 L 12.921875 103.097656 C 13.886719 103.097656 14.667969 102.316406 14.667969 101.351562 L 14.667969 24.691406 C 14.667969 23.726562 13.886719 22.945312 12.921875 22.945312 C 11.957031 22.945312 11.171875 23.726562 11.171875 24.691406 L 11.171875 99.601562 L 5.863281 99.601562 C 4.3125 99.601562 2.957031 100.484375 2.324219 101.902344 C 1.695312 103.316406 1.945312 104.914062 2.984375 106.070312 L 19.589844 124.527344 C 20.335938 125.351562 21.359375 125.808594 22.472656 125.808594 C 23.585938 125.808594 24.605469 125.355469 25.351562 124.527344 L 41.957031 106.070312 C 42.996094 104.914062 43.25 103.316406 42.617188 101.902344 C 41.984375 100.484375 40.628906 99.601562 39.078125 99.601562 Z M 124.269531 123.707031 L 118.960938 123.707031 L 118.960938 91.683594 C 118.960938 90.71875 118.179688 89.9375 117.214844 89.9375 C 116.25 89.9375 115.464844 90.71875 115.464844 91.683594 L 115.464844 125.453125 C 115.464844 126.417969 116.25 127.199219 117.214844 127.199219 L 124.269531 127.199219 C 124.4375 127.199219 124.546875 127.273438 124.617188 127.425781 C 124.683594 127.578125 124.664062 127.707031 124.550781 127.832031 L 107.945312 146.289062 C 107.859375 146.386719 107.792969 146.417969 107.664062 146.417969 C 107.535156 146.417969 107.46875 146.386719 107.382812 146.289062 L 90.773438 127.832031 C 90.660156 127.707031 90.640625 127.578125 90.710938 127.425781 C 90.777344 127.273438 90.886719 127.199219 91.054688 127.199219 L 98.113281 127.199219 C 99.078125 127.199219 99.859375 126.417969 99.859375 125.453125 L 99.859375 91.683594 C 99.859375 90.71875 99.078125 89.9375 98.113281 89.9375 C 97.148438 89.9375 96.363281 90.71875 96.363281 91.683594 L 96.363281 123.707031 L 91.054688 123.707031 C 89.503906 123.707031 88.148438 124.585938 87.515625 126.003906 C 86.886719 127.421875 87.136719 129.019531 88.175781 130.171875 L 104.78125 148.628906 C 105.527344 149.457031 106.550781 149.910156 107.664062 149.910156 C 108.777344 149.910156 109.796875 149.457031 110.542969 148.628906 L 127.152344 130.171875 C 128.1875 129.015625 128.441406 127.421875 127.808594 126.003906 C 127.179688 124.585938 125.820312 123.703125 124.269531 123.703125 Z M 148.273438 44.3125 C 148.273438 66.703125 130.054688 84.921875 107.664062 84.921875 C 85.273438 84.921875 67.054688 66.703125 67.054688 44.3125 C 67.054688 21.921875 85.269531 3.703125 107.664062 3.703125 C 130.054688 3.703125 148.269531 21.921875 148.269531 44.3125 Z M 144.777344 44.3125 C 144.777344 23.847656 128.128906 7.199219 107.664062 7.199219 C 87.199219 7.199219 70.550781 23.847656 70.550781 44.3125 C 70.550781 64.777344 87.199219 81.425781 107.664062 81.425781 C 128.128906 81.425781 144.777344 64.777344 144.777344 44.3125 Z M 133.554688 22.96875 L 133.554688 52.082031 C 133.554688 54.363281 131.699219 56.222656 129.414062 56.222656 L 122.371094 56.222656 C 120.710938 56.222656 119.277344 55.234375 118.621094 53.820312 C 116.800781 53.894531 114.734375 54.238281 114.378906 54.339844 C 108.65625 56.0625 108.171875 61.46875 107.703125 66.699219 C 107.300781 71.199219 106.839844 76.296875 101.9375 77.03125 C 101.730469 77.0625 101.480469 77.085938 101.195312 77.085938 C 99.496094 77.085938 96.613281 76.246094 94.835938 71.105469 C 93.125 66.15625 93.757812 62.355469 94.316406 59 C 94.441406 58.25 94.558594 57.523438 94.65625 56.796875 L 84.136719 56.796875 C 80.796875 56.796875 78.078125 54.078125 78.078125 50.738281 C 78.078125 48.621094 79.171875 46.757812 80.824219 45.675781 C 80.097656 44.675781 79.664062 43.449219 79.664062 42.121094 C 79.664062 40.101562 80.660156 38.316406 82.179688 37.214844 C 81.382812 36.191406 80.898438 34.902344 80.898438 33.503906 C 80.898438 31.21875 82.167969 29.230469 84.039062 28.199219 C 83.558594 27.378906 83.300781 26.460938 83.265625 25.566406 C 83.15625 22.738281 85.128906 19.710938 89.113281 19.398438 L 99.871094 18.554688 C 99.984375 18.546875 100.105469 18.550781 100.21875 18.550781 C 105.648438 18.550781 108.394531 19.375 110.820312 20.105469 C 113 20.761719 114.894531 21.332031 118.601562 21.265625 C 119.25 19.832031 120.695312 18.828125 122.371094 18.828125 L 129.414062 18.828125 C 131.699219 18.828125 133.554688 20.6875 133.554688 22.96875 Z M 118.230469 24.765625 C 114.242188 24.785156 111.992188 24.109375 109.8125 23.453125 C 107.488281 22.753906 105.097656 22.035156 100.078125 22.042969 L 89.386719 22.882812 C 87.507812 23.03125 86.714844 24.269531 86.757812 25.429688 C 86.777344 25.902344 87.011719 27.445312 89.25 27.445312 L 94.28125 27.445312 C 95.246094 27.445312 96.027344 28.230469 96.027344 29.195312 C 96.027344 30.160156 95.246094 30.941406 94.28125 30.941406 L 86.957031 30.941406 C 85.542969 30.941406 84.394531 32.089844 84.394531 33.503906 C 84.394531 34.914062 85.542969 36.066406 86.957031 36.066406 L 93.535156 36.066406 C 94.5 36.066406 95.28125 36.847656 95.28125 37.8125 C 95.28125 38.777344 94.5 39.558594 93.535156 39.558594 L 85.722656 39.558594 C 84.308594 39.558594 83.160156 40.710938 83.160156 42.121094 C 83.160156 43.535156 84.308594 44.683594 85.722656 44.683594 L 92.449219 44.683594 C 93.414062 44.683594 94.195312 45.464844 94.195312 46.429688 C 94.195312 47.394531 93.414062 48.179688 92.449219 48.179688 L 84.136719 48.179688 C 82.722656 48.179688 81.574219 49.328125 81.574219 50.738281 C 81.574219 52.152344 82.722656 53.300781 84.136719 53.300781 L 96.574219 53.300781 C 97.050781 53.300781 97.507812 53.496094 97.839844 53.84375 C 98.167969 54.191406 98.34375 54.65625 98.320312 55.136719 C 98.242188 56.691406 98 58.15625 97.761719 59.570312 C 97.226562 62.800781 96.71875 65.851562 98.140625 69.960938 C 98.457031 70.878906 99.628906 73.84375 101.417969 73.578125 C 103.398438 73.277344 103.792969 71.15625 104.222656 66.386719 C 104.714844 60.902344 105.386719 53.398438 113.371094 50.992188 C 114.050781 50.789062 116.269531 50.441406 118.230469 50.339844 Z M 130.058594 22.96875 C 130.058594 22.621094 129.765625 22.324219 129.414062 22.324219 L 122.371094 22.324219 C 122.019531 22.324219 121.726562 22.621094 121.726562 22.96875 L 121.726562 52.082031 C 121.726562 52.429688 122.019531 52.726562 122.371094 52.726562 L 129.414062 52.726562 C 129.765625 52.726562 130.058594 52.429688 130.058594 52.082031 Z M 130.058594 22.96875 " fill-opacity="1" fill-rule="nonzero"/></g></svg>