<svg xmlns="http://www.w3.org/2000/svg" xmlns:xlink="http://www.w3.org/1999/xlink" width="200" zoomAndPan="magnify" viewBox="0 0 150 149.999998" height="200" preserveAspectRatio="xMidYMid meet" version="1.0"><defs><clipPath id="8d106aadfc"><path d="M 75 0 C 33.578125 0 0 33.578125 0 75 C 0 116.421875 33.578125 150 75 150 C 116.421875 150 150 116.421875 150 75 C 150 33.578125 116.421875 0 75 0 Z M 75 0 " clip-rule="nonzero"/></clipPath><clipPath id="2d35abee4b"><path d="M 0 0 L 150 0 L 150 150 L 0 150 Z M 0 0 " clip-rule="nonzero"/></clipPath><clipPath id="82a755636f"><path d="M 75 0 C 33.578125 0 0 33.578125 0 75 C 0 116.421875 33.578125 150 75 150 C 116.421875 150 150 116.421875 150 75 C 150 33.578125 116.421875 0 75 0 Z M 75 0 " clip-rule="nonzero"/></clipPath><clipPath id="cb26dbe208"><rect x="0" width="150" y="0" height="150"/></clipPath><clipPath id="472afe0a18"><path d="M 22.285156 30.195312 L 122 30.195312 L 122 119.445312 L 22.285156 119.445312 Z M 22.285156 30.195312 " clip-rule="nonzero"/></clipPath></defs><g clip-path="url(#8d106aadfc)"><g transform="matrix(1, 0, 0, 1, 0, -0.000000000000007527)"><g clip-path="url(#cb26dbe208)"><g clip-path="url(#2d35abee4b)"><g clip-path="url(#82a755636f)"><rect x="-33" width="216" fill="#fff9eb" height="215.999996" y="-32.999999" fill-opacity="1"/></g></g></g></g></g><g clip-path="url(#472afe0a18)"><path fill="#e26b38" d="M 98.097656 94.933594 C 99.191406 94.933594 100.207031 95.261719 101.058594 95.820312 C 101.886719 94.917969 102.875 94.15625 103.976562 93.589844 C 105.417969 92.84375 107.054688 92.421875 108.785156 92.421875 C 111.609375 92.421875 114.175781 93.542969 116.0625 95.363281 C 117.957031 97.191406 119.164062 99.726562 119.261719 102.542969 C 119.277344 102.910156 119.183594 103.257812 119.011719 103.558594 C 118.988281 103.597656 118.96875 103.632812 118.945312 103.667969 C 118.726562 103.992188 118.40625 104.246094 118.015625 104.386719 C 115.085938 105.457031 112.148438 106.015625 109.203125 106.066406 C 106.460938 106.109375 103.71875 105.710938 100.980469 104.867188 C 100.144531 105.394531 99.15625 105.703125 98.097656 105.703125 C 97.039062 105.703125 96.050781 105.394531 95.214844 104.867188 C 92.609375 105.667969 90.003906 106.070312 87.410156 106.070312 C 84.8125 106.070312 82.210938 105.667969 79.601562 104.867188 C 78.769531 105.394531 77.78125 105.703125 76.722656 105.703125 C 75.664062 105.703125 74.675781 105.394531 73.84375 104.863281 C 71.101562 105.710938 68.359375 106.109375 65.617188 106.066406 C 62.671875 106.015625 59.730469 105.457031 56.800781 104.386719 C 56.410156 104.246094 56.09375 103.992188 55.871094 103.664062 C 55.65625 103.339844 55.539062 102.953125 55.554688 102.539062 C 55.652344 99.722656 56.863281 97.1875 58.753906 95.363281 C 60.640625 93.542969 63.207031 92.421875 66.035156 92.421875 C 67.761719 92.421875 69.398438 92.84375 70.84375 93.589844 C 71.941406 94.15625 72.929688 94.917969 73.761719 95.820312 C 74.609375 95.261719 75.628906 94.933594 76.722656 94.933594 C 77.8125 94.933594 78.832031 95.261719 79.679688 95.824219 C 80.511719 94.917969 81.5 94.15625 82.601562 93.589844 C 84.042969 92.84375 85.679688 92.421875 87.410156 92.421875 C 89.136719 92.421875 90.773438 92.84375 92.214844 93.589844 C 93.316406 94.15625 94.304688 94.917969 95.136719 95.824219 C 95.988281 95.261719 97.003906 94.933594 98.097656 94.933594 Z M 33.199219 77.691406 L 33.199219 96.042969 C 33.199219 96.855469 33.527344 97.59375 34.058594 98.125 C 34.589844 98.65625 35.328125 98.984375 36.140625 98.984375 C 36.953125 98.984375 37.691406 98.65625 38.222656 98.128906 L 38.21875 98.125 C 38.75 97.59375 39.082031 96.855469 39.082031 96.042969 L 39.082031 78.761719 C 39.082031 78.09375 39.625 77.550781 40.292969 77.550781 C 40.964844 77.550781 41.507812 78.09375 41.507812 78.761719 L 41.507812 96.34375 C 41.507812 97.113281 41.808594 97.757812 42.292969 98.207031 C 42.824219 98.699219 43.589844 98.984375 44.449219 98.984375 C 45.261719 98.984375 45.996094 98.65625 46.527344 98.125 L 46.582031 98.074219 C 47.082031 97.546875 47.390625 96.832031 47.390625 96.042969 L 47.390625 76.386719 L 47.394531 76.386719 L 47.394531 65.605469 C 47.292969 65.167969 47.359375 64.71875 47.539062 64.332031 C 47.75 63.878906 48.136719 63.5 48.605469 63.320312 C 49.019531 63.164062 49.429688 63.148438 49.808594 63.25 C 50.210938 63.355469 50.554688 63.589844 50.816406 63.90625 L 50.820312 63.90625 C 51.71875 64.988281 52.660156 66.320312 53.570312 67.609375 C 53.589844 67.636719 53.605469 67.664062 53.625 67.6875 C 54.046875 68.289062 54.464844 68.878906 54.949219 69.535156 L 54.957031 69.542969 C 55.234375 69.914062 55.640625 70.140625 56.070312 70.203125 C 56.503906 70.269531 56.964844 70.171875 57.339844 69.894531 L 57.351562 69.886719 L 59.335938 68.417969 L 59.382812 68.382812 L 59.40625 68.367188 L 59.433594 68.347656 L 59.429688 68.347656 L 59.488281 68.308594 L 59.519531 68.289062 L 64.914062 64.808594 L 64.921875 64.800781 C 65.316406 64.542969 65.574219 64.144531 65.667969 63.707031 L 65.675781 63.675781 C 65.757812 63.242188 65.683594 62.785156 65.429688 62.394531 L 65.425781 62.386719 C 65.191406 62.023438 64.789062 61.804688 64.34375 61.726562 C 63.835938 61.636719 63.285156 61.734375 62.847656 62.015625 L 59.15625 64.398438 C 58.386719 64.890625 57.492188 65.042969 56.660156 64.878906 C 55.820312 64.71875 55.042969 64.242188 54.511719 63.496094 L 49.402344 56.269531 C 49.351562 56.222656 49.308594 56.167969 49.265625 56.113281 C 48.746094 55.394531 48.148438 54.867188 47.46875 54.527344 C 46.785156 54.183594 45.992188 54.015625 45.09375 54.027344 L 45.089844 54.027344 L 37.617188 54.054688 C 37.574219 54.058594 37.53125 54.058594 37.484375 54.054688 L 36.789062 54.058594 C 36.316406 54.089844 35.890625 54.183594 35.519531 54.339844 C 35.011719 54.550781 34.582031 54.894531 34.238281 55.359375 L 34.226562 55.375 L 34.1875 55.421875 L 34.164062 55.453125 L 25.078125 66.878906 L 25.074219 66.882812 C 24.785156 67.246094 24.671875 67.699219 24.722656 68.136719 C 24.769531 68.570312 24.984375 68.984375 25.347656 69.273438 L 25.355469 69.28125 L 26.675781 70.328125 C 26.699219 70.347656 26.722656 70.371094 26.746094 70.390625 L 26.828125 70.460938 L 26.882812 70.511719 L 31.660156 74.839844 C 32.015625 75.160156 32.472656 75.308594 32.925781 75.285156 C 33.375 75.261719 33.8125 75.070312 34.132812 74.71875 C 34.453125 74.363281 34.601562 73.90625 34.578125 73.453125 C 34.554688 73.003906 34.363281 72.566406 34.011719 72.246094 L 31.246094 69.742188 C 30.574219 69.136719 30.199219 68.320312 30.128906 67.484375 C 30.0625 66.652344 30.300781 65.792969 30.863281 65.085938 L 32.800781 62.648438 C 33.21875 62.125 33.980469 62.039062 34.503906 62.453125 C 35.027344 62.871094 35.113281 63.632812 34.699219 64.15625 L 32.757812 66.589844 C 32.59375 66.796875 32.527344 67.050781 32.546875 67.296875 C 32.566406 67.542969 32.675781 67.777344 32.867188 67.953125 L 35.632812 70.457031 C 36.480469 71.226562 36.941406 72.273438 36.992188 73.339844 C 37.046875 74.402344 36.695312 75.488281 35.921875 76.335938 C 35.191406 77.148438 34.207031 77.601562 33.199219 77.691406 Z M 30.773438 96.042969 C 30.773438 97.527344 31.371094 98.867188 32.34375 99.839844 C 33.316406 100.8125 34.65625 101.410156 36.140625 101.410156 C 37.617188 101.410156 38.957031 100.8125 39.929688 99.839844 L 39.933594 99.835938 L 39.933594 99.839844 C 40.03125 99.742188 40.128906 99.640625 40.21875 99.53125 C 40.351562 99.691406 40.492188 99.839844 40.644531 99.980469 C 41.621094 100.886719 42.972656 101.410156 44.449219 101.410156 C 45.929688 101.410156 47.273438 100.8125 48.242188 99.839844 C 48.269531 99.816406 48.292969 99.789062 48.3125 99.765625 C 49.242188 98.800781 49.816406 97.488281 49.816406 96.042969 L 49.816406 76.386719 L 49.8125 76.386719 L 49.8125 66.539062 C 50.402344 67.320312 51.003906 68.171875 51.589844 69.003906 C 51.609375 69.03125 51.632812 69.058594 51.652344 69.082031 C 52.121094 69.746094 52.578125 70.390625 52.945312 70.890625 C 52.984375 70.953125 53.027344 71.011719 53.078125 71.066406 C 53.617188 71.753906 54.335938 72.226562 55.117188 72.464844 L 55.117188 73.160156 C 55.117188 74.128906 55.515625 75.007812 56.152344 75.644531 L 56.15625 75.644531 C 56.792969 76.28125 57.671875 76.675781 58.636719 76.675781 L 118.183594 76.675781 C 119.148438 76.675781 120.027344 76.28125 120.664062 75.644531 L 120.671875 75.640625 C 121.304688 75.003906 121.703125 74.125 121.703125 73.160156 L 121.703125 33.75 C 121.703125 32.78125 121.304688 31.898438 120.671875 31.265625 L 120.664062 31.265625 C 120.027344 30.628906 119.148438 30.230469 118.183594 30.230469 L 58.636719 30.230469 C 57.667969 30.230469 56.792969 30.628906 56.15625 31.265625 L 56.148438 31.265625 C 55.511719 31.898438 55.117188 32.78125 55.117188 33.75 L 55.117188 60.15625 L 51.15625 54.554688 C 51.097656 54.472656 51.03125 54.398438 50.957031 54.335938 C 50.269531 53.480469 49.46875 52.824219 48.550781 52.363281 C 47.515625 51.847656 46.355469 51.59375 45.078125 51.609375 L 45.074219 51.609375 L 37.601562 51.640625 C 36.472656 51.582031 35.46875 51.738281 34.589844 52.101562 C 33.675781 52.484375 32.914062 53.085938 32.304688 53.90625 L 32.269531 53.949219 L 23.226562 65.316406 C 23.191406 65.355469 23.15625 65.398438 23.128906 65.441406 C 22.460938 66.316406 22.199219 67.382812 22.316406 68.402344 C 22.429688 69.429688 22.925781 70.410156 23.773438 71.113281 C 23.816406 71.152344 23.855469 71.183594 23.902344 71.214844 L 25.167969 72.226562 L 25.199219 72.25 L 25.234375 72.277344 L 25.265625 72.304688 L 30.042969 76.628906 C 30.269531 76.835938 30.515625 77.015625 30.773438 77.160156 Z M 57.542969 62.492188 L 57.542969 33.75 C 57.542969 33.449219 57.667969 33.175781 57.863281 32.980469 L 57.863281 32.976562 C 58.058594 32.78125 58.335938 32.660156 58.636719 32.660156 L 118.183594 32.660156 C 118.488281 32.660156 118.761719 32.78125 118.957031 32.976562 L 118.953125 32.980469 C 119.152344 33.175781 119.277344 33.449219 119.277344 33.75 L 119.277344 73.160156 C 119.277344 73.460938 119.15625 73.730469 118.960938 73.929688 L 118.953125 73.933594 C 118.757812 74.128906 118.484375 74.25 118.183594 74.25 L 58.636719 74.25 C 58.335938 74.25 58.058594 74.128906 57.863281 73.933594 L 57.867188 73.929688 C 57.667969 73.730469 57.542969 73.460938 57.542969 73.160156 L 57.542969 72.460938 C 57.941406 72.339844 58.324219 72.15625 58.679688 71.90625 C 58.742188 71.867188 58.800781 71.828125 58.855469 71.777344 L 59.464844 71.328125 C 59.582031 71.539062 59.722656 71.730469 59.890625 71.898438 L 59.890625 71.902344 C 60.335938 72.347656 60.953125 72.625 61.628906 72.625 L 115.191406 72.625 C 115.863281 72.625 116.480469 72.347656 116.925781 71.902344 L 116.929688 71.902344 C 117.375 71.457031 117.648438 70.84375 117.648438 70.164062 L 117.648438 36.742188 C 117.648438 36.066406 117.375 35.449219 116.929688 35.003906 C 116.484375 34.5625 115.867188 34.285156 115.191406 34.285156 L 61.628906 34.285156 C 60.953125 34.285156 60.335938 34.5625 59.890625 35.003906 C 59.449219 35.449219 59.171875 36.066406 59.171875 36.742188 L 59.171875 61.503906 L 57.847656 62.359375 C 57.75 62.421875 57.648438 62.464844 57.542969 62.492188 Z M 61.597656 59.941406 L 61.597656 36.742188 C 61.597656 36.734375 61.601562 36.726562 61.605469 36.71875 C 61.613281 36.714844 61.621094 36.710938 61.628906 36.710938 L 115.191406 36.710938 C 115.199219 36.710938 115.207031 36.714844 115.214844 36.71875 C 115.21875 36.726562 115.222656 36.734375 115.222656 36.742188 L 115.222656 70.164062 C 115.222656 70.171875 115.21875 70.183594 115.214844 70.1875 L 115.214844 70.191406 C 115.210938 70.195312 115.203125 70.199219 115.191406 70.199219 L 61.628906 70.199219 C 61.621094 70.199219 61.613281 70.195312 61.605469 70.1875 L 61.605469 70.191406 C 61.601562 70.183594 61.597656 70.175781 61.597656 70.164062 L 61.597656 69.828125 L 66.222656 66.84375 C 67.1875 66.21875 67.8125 65.261719 68.035156 64.21875 L 68.046875 64.164062 C 68.253906 63.140625 68.078125 62.03125 67.46875 61.085938 C 66.839844 60.109375 65.835938 59.527344 64.753906 59.339844 C 63.695312 59.152344 62.542969 59.351562 61.597656 59.941406 Z M 41.503906 35.53125 C 43.640625 35.53125 45.578125 36.398438 46.976562 37.796875 C 48.375 39.199219 49.242188 41.132812 49.242188 43.269531 C 49.242188 45.40625 48.375 47.339844 46.976562 48.738281 C 46.953125 48.765625 46.929688 48.785156 46.902344 48.808594 C 45.507812 50.167969 43.601562 51.007812 41.503906 51.007812 C 39.367188 51.007812 37.433594 50.140625 36.035156 48.742188 C 34.632812 47.339844 33.765625 45.40625 33.765625 43.269531 C 33.765625 41.132812 34.632812 39.199219 36.035156 37.796875 C 36.058594 37.773438 36.082031 37.75 36.105469 37.730469 C 37.5 36.371094 39.40625 35.53125 41.503906 35.53125 Z M 45.261719 39.511719 C 46.222656 40.472656 46.816406 41.800781 46.816406 43.269531 C 46.816406 44.734375 46.222656 46.066406 45.261719 47.023438 L 45.203125 47.085938 C 44.25 48.011719 42.945312 48.582031 41.503906 48.582031 C 40.039062 48.582031 38.710938 47.984375 37.75 47.027344 C 36.789062 46.066406 36.195312 44.734375 36.195312 43.269531 C 36.195312 41.800781 36.789062 40.472656 37.75 39.511719 L 37.804688 39.453125 C 38.757812 38.527344 40.066406 37.957031 41.503906 37.957031 C 42.972656 37.957031 44.300781 38.550781 45.261719 39.511719 Z M 93.359375 102.882812 C 92.945312 102.117188 92.710938 101.246094 92.710938 100.316406 C 92.710938 99.316406 92.984375 98.378906 93.460938 97.578125 C 92.800781 96.828125 92.003906 96.203125 91.109375 95.738281 C 90.003906 95.167969 88.746094 94.847656 87.410156 94.847656 C 86.070312 94.847656 84.8125 95.167969 83.710938 95.738281 C 82.8125 96.203125 82.015625 96.828125 81.355469 97.578125 C 81.832031 98.382812 82.105469 99.320312 82.105469 100.316406 C 82.105469 101.246094 81.871094 102.117188 81.457031 102.878906 C 83.4375 103.390625 85.421875 103.644531 87.410156 103.644531 C 89.394531 103.644531 91.378906 103.390625 93.359375 102.882812 Z M 87.410156 81.230469 C 88.890625 81.230469 90.238281 81.832031 91.210938 82.804688 L 91.214844 82.808594 L 91.214844 82.804688 C 92.191406 83.78125 92.792969 85.125 92.792969 86.613281 C 92.792969 88.101562 92.191406 89.445312 91.214844 90.421875 C 91.191406 90.445312 91.164062 90.46875 91.136719 90.492188 C 90.167969 91.425781 88.851562 92 87.410156 92 C 85.925781 92 84.582031 91.394531 83.605469 90.417969 L 83.601562 90.421875 C 82.628906 89.445312 82.023438 88.101562 82.023438 86.613281 C 82.023438 85.132812 82.628906 83.785156 83.605469 82.808594 L 83.601562 82.804688 C 84.574219 81.832031 85.921875 81.230469 87.410156 81.230469 Z M 89.503906 84.519531 L 89.5 84.519531 C 90.035156 85.054688 90.367188 85.796875 90.367188 86.613281 C 90.367188 87.429688 90.035156 88.171875 89.5 88.707031 L 89.449219 88.761719 C 88.921875 89.265625 88.203125 89.574219 87.410156 89.574219 C 86.589844 89.574219 85.847656 89.242188 85.316406 88.710938 L 85.3125 88.707031 L 85.316406 88.707031 C 84.78125 88.171875 84.449219 87.429688 84.449219 86.613281 C 84.449219 85.792969 84.78125 85.054688 85.3125 84.519531 L 85.316406 84.519531 C 85.851562 83.984375 86.589844 83.65625 87.410156 83.65625 C 88.226562 83.65625 88.96875 83.984375 89.503906 84.519531 Z M 72.089844 97.578125 C 71.425781 96.828125 70.628906 96.203125 69.734375 95.738281 C 68.628906 95.167969 67.371094 94.847656 66.035156 94.847656 C 63.855469 94.847656 61.878906 95.707031 60.429688 97.105469 C 59.058594 98.429688 58.15625 100.234375 57.992188 102.246094 C 60.554688 103.136719 63.105469 103.605469 65.652344 103.648438 C 67.761719 103.683594 69.875 103.425781 71.988281 102.878906 C 71.574219 102.117188 71.335938 101.246094 71.335938 100.316406 C 71.335938 99.320312 71.609375 98.382812 72.089844 97.578125 Z M 66.035156 81.230469 C 67.519531 81.230469 68.867188 81.832031 69.839844 82.804688 C 69.867188 82.832031 69.890625 82.855469 69.914062 82.882812 C 70.84375 83.855469 71.417969 85.167969 71.417969 86.613281 C 71.417969 88.09375 70.816406 89.441406 69.839844 90.414062 L 69.839844 90.417969 L 69.832031 90.425781 C 68.855469 91.398438 67.511719 92 66.035156 92 C 64.550781 92 63.207031 91.394531 62.230469 90.417969 L 62.226562 90.421875 C 61.253906 89.445312 60.648438 88.101562 60.648438 86.613281 C 60.648438 85.125 61.253906 83.78125 62.226562 82.804688 C 62.25 82.78125 62.277344 82.757812 62.304688 82.734375 C 63.273438 81.804688 64.585938 81.230469 66.035156 81.230469 Z M 68.125 84.519531 L 68.179688 84.574219 C 68.683594 85.101562 68.992188 85.820312 68.992188 86.613281 C 68.992188 87.433594 68.664062 88.175781 68.132812 88.707031 L 68.125 88.710938 C 67.59375 89.242188 66.855469 89.574219 66.035156 89.574219 C 65.214844 89.574219 64.472656 89.242188 63.941406 88.710938 L 63.9375 88.707031 L 63.941406 88.707031 C 63.40625 88.171875 63.074219 87.429688 63.074219 86.613281 C 63.074219 85.796875 63.40625 85.054688 63.941406 84.519531 L 63.992188 84.46875 C 64.523438 83.964844 65.242188 83.65625 66.035156 83.65625 C 66.851562 83.65625 67.589844 83.984375 68.125 84.519531 Z M 102.730469 97.578125 C 103.207031 98.378906 103.480469 99.316406 103.480469 100.316406 C 103.480469 101.246094 103.246094 102.121094 102.832031 102.882812 C 104.945312 103.425781 107.054688 103.683594 109.164062 103.648438 C 111.710938 103.605469 114.265625 103.136719 116.824219 102.246094 C 116.660156 100.234375 115.757812 98.429688 114.386719 97.105469 C 112.9375 95.707031 110.960938 94.847656 108.785156 94.847656 C 107.445312 94.847656 106.1875 95.167969 105.085938 95.738281 C 104.1875 96.203125 103.390625 96.828125 102.730469 97.578125 Z M 108.785156 81.230469 C 110.265625 81.230469 111.609375 81.832031 112.585938 82.804688 L 112.589844 82.808594 L 112.589844 82.8125 L 112.59375 82.816406 C 113.566406 83.792969 114.167969 85.136719 114.167969 86.613281 C 114.167969 88.097656 113.566406 89.441406 112.589844 90.417969 L 112.589844 90.421875 C 111.617188 91.394531 110.269531 92 108.785156 92 C 107.300781 92 105.957031 91.394531 104.980469 90.417969 L 104.976562 90.421875 C 104.003906 89.445312 103.398438 88.101562 103.398438 86.613281 C 103.398438 85.125 104.003906 83.78125 104.976562 82.804688 C 105.949219 81.832031 107.296875 81.230469 108.785156 81.230469 Z M 110.875 84.515625 L 110.878906 84.519531 C 111.414062 85.054688 111.742188 85.792969 111.742188 86.613281 C 111.742188 87.433594 111.410156 88.171875 110.878906 88.707031 L 110.875 88.707031 C 110.339844 89.242188 109.601562 89.574219 108.785156 89.574219 C 107.964844 89.574219 107.222656 89.242188 106.691406 88.710938 L 106.6875 88.707031 L 106.691406 88.707031 C 106.15625 88.171875 105.824219 87.429688 105.824219 86.613281 C 105.824219 85.796875 106.15625 85.054688 106.691406 84.519531 C 107.226562 83.988281 107.964844 83.65625 108.785156 83.65625 C 109.605469 83.65625 110.34375 83.984375 110.875 84.515625 Z M 95.875 54 C 95.207031 54 94.664062 53.457031 94.664062 52.789062 C 94.664062 52.117188 95.207031 51.574219 95.875 51.574219 L 109.601562 51.574219 C 110.273438 51.574219 110.816406 52.117188 110.816406 52.789062 C 110.816406 53.457031 110.273438 54 109.601562 54 Z M 67.21875 44.863281 C 66.546875 44.863281 66.003906 44.316406 66.003906 43.648438 C 66.003906 42.980469 66.546875 42.433594 67.21875 42.433594 L 109.601562 42.433594 C 110.273438 42.433594 110.816406 42.980469 110.816406 43.648438 C 110.816406 44.316406 110.273438 44.863281 109.601562 44.863281 Z M 75.265625 63.140625 C 74.59375 63.140625 74.050781 62.597656 74.050781 61.929688 C 74.050781 61.257812 74.59375 60.714844 75.265625 60.714844 L 109.601562 60.714844 C 110.273438 60.714844 110.816406 61.257812 110.816406 61.929688 C 110.816406 62.597656 110.273438 63.140625 109.601562 63.140625 Z M 67.21875 54 C 66.546875 54 66.003906 53.457031 66.003906 52.789062 C 66.003906 52.117188 66.546875 51.574219 67.21875 51.574219 L 91.335938 51.574219 C 92.003906 51.574219 92.546875 52.117188 92.546875 52.789062 C 92.546875 53.457031 92.003906 54 91.335938 54 Z M 68.679688 115.949219 C 71.359375 116.882812 74.039062 117.351562 76.722656 117.351562 C 79.402344 117.351562 82.082031 116.882812 84.761719 115.949219 C 84.597656 113.9375 83.695312 112.132812 82.324219 110.8125 C 80.875 109.414062 78.898438 108.550781 76.722656 108.550781 C 74.542969 108.550781 72.566406 109.410156 71.117188 110.8125 C 69.746094 112.132812 68.84375 113.9375 68.679688 115.949219 Z M 76.722656 119.777344 C 73.644531 119.777344 70.566406 119.214844 67.488281 118.09375 C 67.144531 117.96875 66.851562 117.75 66.636719 117.476562 C 66.609375 117.441406 66.585938 117.410156 66.558594 117.371094 C 66.34375 117.050781 66.226562 116.664062 66.242188 116.25 C 66.339844 113.429688 67.546875 110.894531 69.441406 109.066406 C 71.328125 107.246094 73.894531 106.125 76.722656 106.125 C 79.546875 106.125 82.113281 107.246094 84 109.066406 C 85.886719 110.886719 87.089844 113.40625 87.199219 116.210938 L 87.199219 116.242188 C 87.214844 116.65625 87.097656 117.046875 86.882812 117.367188 C 86.664062 117.695312 86.34375 117.953125 85.953125 118.09375 C 82.875 119.214844 79.796875 119.777344 76.722656 119.777344 Z M 78.816406 98.222656 C 78.28125 97.691406 77.539062 97.359375 76.722656 97.359375 C 75.902344 97.359375 75.164062 97.691406 74.628906 98.226562 L 74.625 98.222656 L 74.625 98.226562 C 74.59375 98.257812 74.558594 98.292969 74.527344 98.324219 L 74.527344 98.328125 L 74.519531 98.335938 L 74.488281 98.371094 C 74.035156 98.886719 73.761719 99.570312 73.761719 100.316406 C 73.761719 101.140625 74.09375 101.878906 74.625 102.410156 L 74.628906 102.414062 C 75.160156 102.949219 75.902344 103.277344 76.722656 103.277344 C 77.539062 103.277344 78.28125 102.945312 78.816406 102.414062 C 79.347656 101.878906 79.679688 101.136719 79.679688 100.316406 C 79.679688 99.566406 79.402344 98.882812 78.945312 98.359375 L 78.925781 98.339844 C 78.890625 98.300781 78.855469 98.261719 78.816406 98.222656 Z M 90.054688 115.949219 C 92.734375 116.882812 95.414062 117.351562 98.097656 117.351562 C 100.777344 117.351562 103.457031 116.882812 106.136719 115.949219 C 105.972656 113.9375 105.070312 112.132812 103.699219 110.8125 C 102.25 109.414062 100.273438 108.550781 98.097656 108.550781 C 95.917969 108.550781 93.941406 109.414062 92.492188 110.8125 C 91.121094 112.132812 90.21875 113.9375 90.054688 115.949219 Z M 98.097656 119.777344 C 95.019531 119.777344 91.941406 119.214844 88.863281 118.09375 C 88.472656 117.949219 88.152344 117.695312 87.933594 117.371094 L 87.9375 117.371094 L 87.933594 117.367188 C 87.71875 117.046875 87.601562 116.65625 87.617188 116.242188 C 87.714844 113.429688 88.925781 110.894531 90.816406 109.066406 C 92.703125 107.246094 95.269531 106.125 98.097656 106.125 C 100.921875 106.125 103.488281 107.246094 105.375 109.066406 C 107.261719 110.886719 108.464844 113.40625 108.574219 116.210938 L 108.574219 116.242188 C 108.589844 116.65625 108.472656 117.046875 108.257812 117.367188 C 108.035156 117.695312 107.71875 117.953125 107.328125 118.09375 C 104.25 119.214844 101.171875 119.777344 98.097656 119.777344 Z M 100.1875 98.226562 C 99.652344 97.691406 98.914062 97.359375 98.097656 97.359375 C 97.304688 97.359375 96.585938 97.667969 96.054688 98.171875 L 96.003906 98.226562 C 95.46875 98.761719 95.136719 99.5 95.136719 100.316406 C 95.136719 101.136719 95.46875 101.875 96.003906 102.410156 L 96 102.414062 C 96.535156 102.945312 97.277344 103.277344 98.097656 103.277344 C 98.914062 103.277344 99.652344 102.945312 100.1875 102.410156 C 100.722656 101.875 101.054688 101.136719 101.054688 100.316406 C 101.054688 99.5 100.722656 98.761719 100.1875 98.226562 Z M 100.1875 98.226562 " fill-opacity="1" fill-rule="evenodd"/></g></svg>