<?xml version="1.0" encoding="UTF-8"?>
<!DOCTYPE svg PUBLIC "-//W3C//DTD SVG 1.1//EN" "http://www.w3.org/Graphics/SVG/1.1/DTD/svg11.dtd">
<!-- Creator: CorelDRAW 2020 (64 Bit) -->
<svg xmlns="http://www.w3.org/2000/svg" xml:space="preserve" width="2374px" height="2374px" version="1.1" style="shape-rendering:geometricPrecision; text-rendering:geometricPrecision; image-rendering:optimizeQuality; fill-rule:evenodd; clip-rule:evenodd"
viewBox="0 0 2374 2374"
 xmlns:xlink="http://www.w3.org/1999/xlink"
 xmlns:xodm="http://www.corel.com/coreldraw/odm/2003">
 <defs>
  <style type="text/css">
   <![CDATA[
    .fil0 {fill:#3634A1;fill-rule:nonzero}
    .fil1 {fill:white;fill-rule:nonzero}
   ]]>
  </style>
 </defs>
 <g id="Camada_x0020_1">
  <metadata id="CorelCorpID_0Corel-Layer"/>
  <path class="fil0" d="M2318.71 618.45c-27.22,-101.69 -107.15,-181.61 -208.85,-208.83 -184.13,-49.39 -922.86,-49.39 -922.86,-49.39 0,0 -738.71,0 -922.86,49.39 -101.7,27.22 -181.62,107.14 -208.84,208.83 -49.39,184.14 -49.39,568.55 -49.39,568.55 0,0 0,384.41 49.39,568.55 27.22,101.69 107.14,181.61 208.84,208.83 184.15,49.39 922.86,49.39 922.86,49.39 0,0 738.73,0 922.86,-49.39 101.7,-27.22 181.63,-107.14 208.85,-208.83 49.39,-184.14 49.39,-568.55 49.39,-568.55 0,0 -0.2,-384.41 -49.39,-568.55z"/>
  <polygon class="fil1" points="938.74,1559.04 1583.11,1187.04 938.74,815.03 "/>
 </g>
</svg>
